<?xml version="1.0" encoding="UTF-8" standalone="no"?>
<!-- Created with Inkscape (http://www.inkscape.org/) -->

<svg
   width="76.749161mm"
   height="72.498665mm"
   viewBox="0 0 76.749161 72.498665"
   version="1.1"
   id="svg1"
   inkscape:version="1.4 (e7c3feb100, 2024-10-09)"
   sodipodi:docname="logolsh.svg"
   xmlns:inkscape="http://www.inkscape.org/namespaces/inkscape"
   xmlns:sodipodi="http://sodipodi.sourceforge.net/DTD/sodipodi-0.dtd"
   xmlns="http://www.w3.org/2000/svg"
   xmlns:svg="http://www.w3.org/2000/svg">
  <sodipodi:namedview
     id="namedview1"
     pagecolor="#505050"
     bordercolor="#eeeeee"
     borderopacity="1"
     inkscape:showpageshadow="0"
     inkscape:pageopacity="0"
     inkscape:pagecheckerboard="0"
     inkscape:deskcolor="#d1d1d1"
     inkscape:document-units="mm"
     inkscape:zoom="1.9919472"
     inkscape:cx="157.6347"
     inkscape:cy="109.94267"
     inkscape:window-width="1362"
     inkscape:window-height="761"
     inkscape:window-x="0"
     inkscape:window-y="0"
     inkscape:window-maximized="0"
     inkscape:current-layer="layer1" />
  <defs
     id="defs1" />
  <g
     inkscape:label="Capa 1"
     inkscape:groupmode="layer"
     id="layer1"
     transform="translate(-23.838171,-53.484339)">
    <g
       id="g3">
      <rect
         style="fill:#000000;stroke-width:0.232884"
         id="rect1"
         width="36.925758"
         height="53.927544"
         x="57.841747"
         y="64.907417" />
      <g
         id="g1">
        <g
           id="l3zyhVFOh7bWzu5RFpaj6Ir"
           fill="#ffffff"
           transform="matrix(0.01189996,0,0,0.01180821,17.373849,44.68459)">
          <g
             id="g20">
            <path
               id="puaRQL5K6"
               d="m 3576,6534 c -20,-20 -20,-48 -1,-64 8,-7 15,-25 15,-41 0,-38 18,-46 30,-14 19,51 7,135 -20,135 -5,0 -16,-7 -24,-16 z" />
            <path
               id="pRE7L4xJj"
               d="m 3598,6236 c -6,-32 0,-267 7,-274 3,-3 5,63 5,146 0,148 -3,177 -12,128 z" />
            <path
               id="p1EHBVn0im"
               d="m 3485,4962 c -55,-32 -115,-67 -133,-77 -19,-11 -66,-39 -105,-61 -40,-23 -193,-113 -340,-200 -148,-88 -287,-169 -310,-182 -23,-12 -54,-30 -69,-40 -14,-9 -57,-35 -95,-56 -37,-21 -75,-44 -83,-51 -8,-7 -51,-31 -95,-55 -72,-38 -143,-78 -200,-113 -11,-7 -56,-35 -100,-63 -44,-29 -93,-59 -110,-68 -36,-20 -45,-26 -250,-151 -88,-54 -196,-119 -240,-145 -44,-26 -118,-71 -165,-100 -47,-29 -94,-58 -105,-64 -40,-22 -171,-100 -217,-129 -27,-16 -48,-33 -48,-38 0,-28 76,9 335,165 486,292 527,318 595,366 36,25 100,66 143,90 106,61 320,201 329,214 12,17 112,11 152,-10 20,-11 89,-46 154,-80 203,-105 530,-283 557,-304 15,-11 409,-236 455,-260 21,-11 45,-20 53,-20 12,0 15,111 21,703 4,386 11,705 15,710 4,4 21,-4 37,-19 29,-26 296,-206 539,-363 203,-132 357,-232 390,-255 152,-104 284,-188 353,-225 84,-45 99,-64 60,-76 -13,-4 -48,-22 -78,-40 -30,-18 -80,-46 -110,-62 -95,-51 -512,-285 -760,-426 -96,-55 -191,-109 -210,-119 -19,-11 -39,-24 -45,-28 -5,-5 -51,-29 -101,-54 -66,-33 -93,-51 -97,-68 -4,-12 -3,-26 1,-30 8,-8 278,136 461,246 58,35 147,84 196,111 50,26 115,62 145,80 30,18 116,67 190,108 74,41 202,113 283,160 82,47 163,89 180,92 18,4 41,15 52,25 32,28 126,79 355,193 118,58 247,124 285,145 39,21 138,73 220,116 191,100 263,139 347,188 37,21 87,47 112,58 26,11 46,24 46,30 0,23 -32,21 -77,-5 -27,-15 -91,-50 -143,-78 -52,-27 -133,-71 -180,-97 -47,-26 -193,-105 -324,-175 -131,-70 -268,-145 -303,-166 -101,-62 -320,-169 -346,-169 -13,0 -44,15 -68,33 -24,18 -71,49 -104,67 -59,34 -148,91 -497,319 -97,64 -250,163 -339,221 -90,58 -225,147 -302,198 -76,50 -142,92 -146,92 -4,0 -18,11 -31,25 -13,14 -26,25 -29,25 -3,0 -51,-26 -106,-58 z" />
            <path
               id="psxhDXYvx"
               d="m 5550,2983 c 1,-12 39,-79 40,-70 0,12 -28,77 -34,77 -4,0 -6,-3 -6,-7 z" />
            <path
               id="p19TyYNhTX"
               d="m 5640,2787 c 0,-15 29,-57 30,-42 0,6 -3,20 -6,33 -7,24 -24,31 -24,9 z" />
            <path
               id="pnb28scdP"
               d="m 5710,2642 c 0,-17 22,-62 30,-62 12,0 -1,49 -16,61 -10,8 -14,8 -14,1 z" />
            <path
               id="pzOt4NHGO"
               d="m 5770,2528 c 0,-3 10,-28 22,-55 14,-32 23,-42 25,-31 2,9 -7,34 -21,55 -14,21 -26,35 -26,31 z" />
            <path
               id="psnfbez7U"
               d="m 5870,2323 c 0,-16 25,-73 32,-73 11,0 10,5 -6,45 -14,32 -26,45 -26,28 z" />
            <path
               id="pSMwn6Xps"
               d="m 5961,2120 c 18,-34 35,-58 37,-52 5,16 -41,105 -57,110 -8,3 -1,-20 20,-58 z" />
            <path
               id="p1GB36ZgZt"
               d="m 6014,2013 c 4,-16 24,-64 45,-108 21,-44 59,-123 83,-175 99,-210 127,-266 143,-285 20,-24 21,-26 -44,110 -29,61 -60,128 -67,149 -8,22 -32,76 -53,120 -22,45 -53,111 -70,149 -31,69 -48,87 -37,40 z" />
            <path
               id="peZP9T7Ae"
               d="m 6319,1385 c 16,-30 51,-142 51,-165 0,-33 37,-23 58,16 9,17 6,26 -17,55 -49,59 -104,115 -92,94 z" />
          </g>
        </g>
        <g
           id="l2eeEuv8YDdWND10aDhYYyA"
           fill="#ee5600"
           transform="matrix(0.01189996,0,0,0.01180821,17.679201,44.481942)">
          <g
             id="g11">
            <path
               id="pUjEkZx3r"
               d="m 5005,3938 c -22,-11 -87,-49 -145,-83 -58,-34 -141,-81 -185,-105 -97,-52 -269,-148 -600,-335 -137,-78 -289,-163 -338,-189 -48,-26 -94,-55 -102,-63 -13,-12 -15,-140 -15,-967 0,-751 3,-956 13,-964 8,-7 444,-11 1352,-12 737,-2 1346,-2 1353,-1 28,3 10,67 -52,185 -35,67 -88,175 -119,241 -222,481 -415,883 -437,910 -5,7 -21,43 -36,81 -14,38 -32,76 -40,85 -8,8 -14,19 -14,23 0,5 -22,54 -49,110 -106,219 -185,389 -236,506 -21,47 -57,126 -80,175 -140,294 -165,349 -165,367 0,58 -38,71 -105,36 z" />
          </g>
        </g>
        <g
           id="l2YBYXNFag97F3SJSzYyKeP"
           fill="#3f991c"
           transform="matrix(0.01189996,0,0,0.01180821,17.694941,45.158458)">
          <g
             id="g9">
            <path
               id="p17BoWFfYK"
               d="m 815,6418 c -3,-7 -4,-689 -3,-1515 l 3,-1502 130,79 c 72,43 224,136 340,206 116,70 269,164 340,209 72,45 188,118 258,161 70,44 167,103 215,133 48,29 110,66 137,81 69,38 558,324 620,362 28,17 123,73 213,125 89,51 211,124 270,162 60,38 136,84 170,102 l 62,32 v 690 689 l -137,-8 c -163,-10 -2493,-9 -2564,1 -37,5 -50,3 -54,-7 z" />
            <path
               id="p157ITCN1Z"
               d="m 2230,4153 c -25,-14 -85,-52 -135,-83 -49,-32 -142,-88 -205,-125 -63,-37 -128,-77 -145,-89 -25,-19 -377,-230 -640,-384 -33,-19 -82,-49 -110,-65 -27,-17 -78,-46 -111,-64 -52,-28 -63,-38 -67,-66 -3,-17 -6,-490 -6,-1050 l -1,-1017 h 1380 1380 l -2,1146 -3,1145 -55,31 c -30,17 -111,61 -180,98 -69,37 -145,79 -170,93 -335,186 -448,247 -638,343 -122,63 -228,114 -235,114 -6,-1 -32,-13 -57,-27 z" />
          </g>
        </g>
        <g
           id="l3wtdzy0XvlKQo00maQTIYf"
           fill="#000449"
           transform="matrix(0.01189996,0,0,0.01180821,17.137823,43.868849)">
          <g
             id="g7">
            <path
               id="pd0rkdFBv"
               d="m 3655,6390 c -3,-6 -6,-312 -6,-682 v -672 l 55,-35 c 30,-20 80,-52 111,-71 31,-19 68,-43 83,-52 15,-10 43,-27 62,-38 50,-29 112,-71 215,-145 104,-74 152,-105 164,-105 6,0 11,-4 11,-9 0,-5 12,-14 28,-20 32,-13 82,-41 102,-59 26,-21 151,-102 160,-102 4,0 14,-7 21,-16 7,-9 22,-20 34,-25 11,-5 43,-22 70,-39 28,-16 65,-37 83,-46 17,-10 32,-21 32,-26 0,-4 9,-8 19,-8 11,0 21,-3 23,-7 4,-10 96,-73 105,-73 4,0 17,-9 29,-21 37,-35 80,-31 164,13 41,22 80,45 86,50 7,5 21,10 31,12 21,4 221,102 263,128 14,8 106,57 205,108 197,102 245,127 350,185 39,21 104,55 145,77 41,21 81,44 87,51 10,9 13,179 14,737 1,909 1,892 -10,885 -5,-3 -13,0 -16,5 -8,13 -195,11 -195,-2 0,-9 -113,-7 -120,2 -8,10 -222,-10 -248,-23 -19,-9 -25,-8 -33,3 -6,11 -11,12 -16,4 -16,-22 -53,-34 -109,-34 -61,0 -176,-17 -209,-31 -35,-14 -106,-21 -265,-26 -164,-5 -350,14 -419,43 -22,9 -71,14 -146,14 -61,0 -115,3 -118,6 -4,4 -46,8 -94,10 -91,4 -106,6 -136,19 -10,4 -23,2 -31,-4 -11,-9 -17,-7 -29,9 -11,16 -16,18 -20,8 -4,-10 -6,-10 -6,0 -1,15 -516,18 -526,2 z" />
            <path
               id="pnAr7TgKu"
               d="m 6370,4610 c -8,-5 -42,-21 -75,-36 -33,-16 -82,-41 -110,-57 -64,-38 -266,-147 -420,-227 -66,-34 -127,-68 -135,-75 -8,-6 -22,-15 -30,-18 -8,-4 -37,-20 -65,-36 -27,-16 -77,-44 -110,-61 -33,-18 -67,-39 -76,-46 -8,-8 -25,-14 -36,-14 -12,0 -23,-4 -25,-8 -1,-5 -21,-15 -43,-24 -35,-14 -40,-20 -43,-52 -2,-24 4,-49 17,-72 12,-19 21,-41 21,-48 0,-7 9,-25 20,-39 11,-14 20,-34 20,-46 0,-11 7,-24 16,-29 9,-5 20,-31 25,-57 5,-27 15,-56 23,-64 7,-9 16,-29 20,-45 4,-15 14,-35 21,-43 8,-8 15,-22 15,-32 0,-9 9,-23 20,-31 11,-8 20,-25 20,-37 0,-13 9,-40 20,-60 11,-21 20,-43 20,-49 0,-6 13,-25 28,-42 16,-18 34,-51 41,-75 23,-77 106,-263 123,-273 4,-3 8,-13 8,-23 0,-10 8,-29 19,-42 19,-25 21,-29 21,-54 0,-8 9,-23 20,-32 11,-10 20,-21 20,-26 0,-11 52,-129 119,-272 29,-60 58,-123 66,-140 7,-16 30,-65 49,-107 20,-43 36,-79 36,-82 0,-2 29,-65 65,-141 36,-75 65,-139 65,-142 0,-5 15,-37 85,-188 13,-27 41,-88 63,-135 22,-47 53,-100 68,-118 l 29,-34 -3,1614 c -2,887 -6,1616 -10,1619 -4,4 -14,3 -22,-1 z" />
          </g>
        </g>
        <g
           id="l2VtOEPFNiayakeDjZgg9bR"
           fill="#010304"
           transform="matrix(0.00999338,0,0,0.00943993,23.838171,53.484339)">
          <g
             id="g2">
            <path
               id="p10lFn19EI"
               d="m 0,7665 c 0,-13 356,-15 3143,-15 3257,0 4323,-6 4344,-22 14,-11 15,-141 15,-4757 C 7502,324 7501,65 7487,55 7477,48 7425,43 7358,42 7148,38 7040,27 7040,10 7040,4 7157,0 7360,0 h 320 V 3840 7680 H 3840 C 433,7680 0,7678 0,7665 Z" />
          </g>
        </g>
      </g>
    </g>
  </g>
</svg>
